<?xml version="1.0" encoding="UTF-8" standalone="no"?>
<svg xmlns="http://www.w3.org/2000/svg" viewBox="0 0 24 24" width="1024" height="1024">
  <!-- 背景圆形 -->
  <circle cx="12" cy="12" r="11" fill="#2196F3"/>
  
  <!-- 证书主体 -->
  <path d="M17 3H7c-1.1 0-2 .9-2 2v14c0 1.1.9 2 2 2h10c1.1 0 2-.9 2-2V5c0-1.1-.9-2-2-2z" 
        fill="#FFFFFF" opacity="0.9"/>
  
  <!-- 证书内容线条 -->
  <path d="M9 7h6M9 11h6M9 15h4" 
        stroke="#2196F3" 
        stroke-width="1.5" 
        stroke-linecap="round"/>
  
  <!-- 证书印章 -->
  <circle cx="15" cy="15" r="2.5" 
          fill="#4CAF50" 
          opacity="0.9"/>
  
  <!-- 锁标志 -->
  <path d="M11.5 8.5c0-1.1.9-2 2-2s2 .9 2 2v1.5h-4V8.5z" 
        fill="#FFC107"/>
  <rect x="10.5" y="10" width="6" height="4" rx="1" 
        fill="#FFC107"/>
</svg> 